<svg xmlns="http://www.w3.org/2000/svg" viewBox="0 0 64 64"><title>blog-website-template-css-computer</title><g id="outline"><path d="M58,10v2a2,2,0,0,1,2,2V44H4V14a2,2,0,0,1,2-2V10a4,4,0,0,0-4,4V48a4,4,0,0,0,4,4H25.656l-2.4,8H21v2H43V60H40.744l-2.4-8H58a4,4,0,0,0,4-4V14A4,4,0,0,0,58,10ZM38.656,60H25.344l2.4-8h8.512ZM60,48a2,2,0,0,1-2,2H6a2,2,0,0,1-2-2V46H60Z"/><path d="M56,42V6a4,4,0,0,0-4-4H12A4,4,0,0,0,8,6V42h2V6a2,2,0,0,1,2-2H52a2,2,0,0,1,2,2V42Z"/><rect x="12" y="6" width="2" height="2"/><rect x="16" y="6" width="2" height="2"/><rect x="20" y="6" width="2" height="2"/><rect x="12" y="10" width="40" height="2"/><path d="M23,24a1,1,0,0,0,1-1V15a1,1,0,0,0-1-1H13a1,1,0,0,0-1,1v8a1,1,0,0,0,1,1Zm-9-8h8v6H14Z"/><rect x="26" y="14" width="8" height="2"/><rect x="26" y="18" width="16" height="2"/><rect x="26" y="22" width="8" height="2"/><rect x="12" y="26" width="40" height="2"/><rect x="44" y="18" width="8" height="2"/><rect x="36" y="22" width="14" height="2"/><path d="M13,30a1,1,0,0,0-1,1v8a1,1,0,0,0,1,1H23a1,1,0,0,0,1-1V31a1,1,0,0,0-1-1Zm9,8H14V32h8Z"/><rect x="26" y="30" width="8" height="2"/><rect x="26" y="34" width="16" height="2"/><rect x="26" y="38" width="8" height="2"/><rect x="44" y="34" width="8" height="2"/><rect x="36" y="38" width="14" height="2"/></g></svg>