<svg xmlns="http://www.w3.org/2000/svg" viewBox="0 0 64 64"><title>browser-computer-find-research</title><g id="outline"><path d="M57,2H7A5.006,5.006,0,0,0,2,7V47a5.006,5.006,0,0,0,5,5H24V50H7a3,3,0,0,1-3-3V7A3,3,0,0,1,7,4H57a3,3,0,0,1,3,3V47a3,3,0,0,1-2.249,2.906l.5,1.936A5,5,0,0,0,62,47V7A5.006,5.006,0,0,0,57,2Z"/><rect x="6" y="6" width="2" height="2"/><rect x="10" y="6" width="2" height="2"/><rect x="14" y="6" width="2" height="2"/><rect x="6" y="10" width="52" height="2"/><path d="M10,30H21V28H11V20H53V30h1a1,1,0,0,0,1-1V19a1,1,0,0,0-1-1H10a1,1,0,0,0-1,1V29A1,1,0,0,0,10,30Z"/><rect x="15" y="22" width="2" height="4"/><rect x="52" y="14" width="2" height="2"/><rect x="48" y="14" width="2" height="2"/><rect x="44" y="14" width="2" height="2"/><path d="M37,53.771a16,16,0,0,0,8.208-2.259l9.076,9.328A3.81,3.81,0,0,0,57,62h.034a3.807,3.807,0,0,0,2.751-6.453l-9.139-9.393A15.7,15.7,0,0,0,53,37.885,16,16,0,1,0,37,53.771Zm21.354,3.17a1.8,1.8,0,0,1-.023,2.527,1.825,1.825,0,0,1-1.3.532H57.02a1.823,1.823,0,0,1-1.3-.554L46.89,50.372c.037-.029.07-.065.107-.094a15.82,15.82,0,0,0,1.215-1.067c.016-.015.034-.029.05-.045a15.816,15.816,0,0,0,1.126-1.243c.029-.035.063-.066.091-.1ZM37,24A13.959,13.959,0,0,1,51,37.885a13.732,13.732,0,0,1-2.443,7.832A13.957,13.957,0,1,1,37,24Z"/><path d="M37,49A11,11,0,1,0,26,38,11.013,11.013,0,0,0,37,49Zm0-20a9,9,0,1,1-9,9A9.01,9.01,0,0,1,37,29Z"/><rect x="30.343" y="35" width="11.314" height="2" transform="translate(-14.912 36) rotate(-45)"/><rect x="34.757" y="38" width="8.485" height="2" transform="translate(-16.154 39) rotate(-45)"/></g></svg>