<svg xmlns="http://www.w3.org/2000/svg" viewBox="0 0 64 64"><title>bug-programming-develop-software</title><g id="outline"><path d="M58,10v2a2,2,0,0,1,2,2V44H4V14a2,2,0,0,1,2-2V10a4,4,0,0,0-4,4V48a4,4,0,0,0,4,4H25.656l-2.4,8H21v2H43V60H40.744l-2.4-8H58a4,4,0,0,0,4-4V14A4,4,0,0,0,58,10ZM38.656,60H25.344l2.4-8h8.512ZM60,48a2,2,0,0,1-2,2H6a2,2,0,0,1-2-2V46H60Z"/><path d="M12,42H52a4,4,0,0,0,4-4V6a4,4,0,0,0-4-4H12A4,4,0,0,0,8,6V38A4,4,0,0,0,12,42ZM10,6a2,2,0,0,1,2-2H52a2,2,0,0,1,2,2V38a2,2,0,0,1-2,2H12a2,2,0,0,1-2-2Z"/><rect x="12" y="10" width="40" height="2"/><rect x="12" y="15" width="6" height="2"/><rect x="12" y="20" width="6" height="2"/><rect x="12" y="35" width="5" height="2"/><rect x="12" y="6" width="2" height="2"/><rect x="16" y="6" width="2" height="2"/><rect x="20" y="6" width="2" height="2"/><path d="M43.586,28l2.707,2.707,1.414-1.414-3-3A1,1,0,0,0,44,26H40.819a10.736,10.736,0,0,0-.576-2H42a1,1,0,0,0,.98-.8l1-5L42.02,17.8,41.181,22h-2A9.351,9.351,0,0,0,36,19.055V18a4,4,0,0,0-8,0v1h.1a9.32,9.32,0,0,0-3.286,3h-2l-.839-4.2-1.96.392,1,5A1,1,0,0,0,22,24h1.757a10.736,10.736,0,0,0-.576,2H20a1,1,0,0,0-.707.293l-3,3,1.414,1.414L20.414,28H23a11.128,11.128,0,0,0,.181,2H22a1,1,0,0,0-.929.628l-2,5,1.858.744L22.677,32h1.08A9.036,9.036,0,0,0,32,38a9.035,9.035,0,0,0,8.243-6h1.08l1.748,4.372,1.858-.744-2-5A1,1,0,0,0,42,30H40.819A11.128,11.128,0,0,0,41,28ZM30,18a2,2,0,0,1,4,0v.257a7.911,7.911,0,0,0-4,0Zm1,17.909c-3.386-.558-6-3.887-6-7.909a8.829,8.829,0,0,1,.947-4H31ZM27.386,22a6.322,6.322,0,0,1,9.228,0ZM33,35.909V24h5.053A8.829,8.829,0,0,1,39,28C39,32.022,36.386,35.351,33,35.909Z"/><rect x="12" y="25" width="3" height="2"/><rect x="12" y="30" width="2" height="2"/><rect x="46" y="15" width="6" height="2"/><rect x="46" y="20" width="6" height="2"/><rect x="47" y="35" width="5" height="2"/><rect x="49" y="25" width="3" height="2"/><rect x="50" y="30" width="2" height="2"/></g></svg>