<svg xmlns="http://www.w3.org/2000/svg" viewBox="0 0 64 64"><title>coding-computer-programing-algorithm</title><g id="outline"><path d="M12,6a2,2,0,0,1,2-2H58a2,2,0,0,1,2,2V30H36v2H60v2a2,2,0,0,1-2,2H36v2h4.307l2.25,6H36v2H47V44H44.693l-2.25-6H58a4,4,0,0,0,4-4V6a4,4,0,0,0-4-4H14a4,4,0,0,0-4,4V18h2Z"/><path d="M3,62H26a1.005,1.005,0,0,0,.707-.293l7-7a1,1,0,0,0,.2-.293c.014-.031.022-.061.033-.093a1,1,0,0,0,.052-.26c0-.021.012-.04.012-.061V21a1,1,0,0,0-1-1H3a1,1,0,0,0-1,1V61A1,1,0,0,0,3,62Zm24-3.414V55h3.586ZM4,22H32V53H26a1,1,0,0,0-1,1v6H4Z"/><rect x="6" y="24" width="4" height="2"/><rect x="6" y="28" width="4" height="2"/><rect x="32" y="15" width="16" height="2"/><rect x="36" y="20" width="8" height="2"/><rect x="40" y="10" width="16" height="2"/><rect x="46" y="20" width="10" height="2"/><rect x="36" y="25" width="12" height="2"/><rect x="50" y="25" width="6" height="2"/><rect x="50" y="15" width="6" height="2"/><rect x="32" y="10" width="6" height="2"/><path d="M23.515,37.857a1,1,0,0,0,0-1.714L19,33.434V32h.5a3.5,3.5,0,0,0,0-7h-3a3.5,3.5,0,0,0,0,7H17v1.434l-4.515,2.709a1,1,0,0,0,0,1.714L17,40.566V42H13a1,1,0,0,0-1,1v5a1,1,0,0,0,1,1h4v2h-.5a3.5,3.5,0,0,0,0,7h3a3.5,3.5,0,0,0,0-7H19V49h4a1,1,0,0,0,1-1V43a1,1,0,0,0-1-1H19V40.566ZM16.5,30a1.5,1.5,0,0,1,0-3h3a1.5,1.5,0,0,1,0,3Zm3,23a1.5,1.5,0,0,1,0,3h-3a1.5,1.5,0,0,1,0-3ZM22,44v3H14V44Zm-4-5.166L14.943,37,18,35.166,21.057,37Z"/><rect x="14" y="6" width="2" height="2"/><rect x="18" y="6" width="2" height="2"/><rect x="22" y="6" width="2" height="2"/><path d="M37,62H61a1,1,0,0,0,1-1V49a1,1,0,0,0-1-1H37a1,1,0,0,0-1,1V61A1,1,0,0,0,37,62Zm1-12H60V60H38Z"/><rect x="40" y="56" width="2" height="2"/><rect x="56" y="56" width="2" height="2"/><rect x="40" y="52" width="2" height="2"/><rect x="44" y="52" width="2" height="2"/><rect x="48" y="52" width="2" height="2"/><rect x="52" y="52" width="2" height="2"/><rect x="56" y="52" width="2" height="2"/><rect x="44" y="56" width="10" height="2"/><path d="M17.293,10.293l-3,3a1,1,0,0,0,0,1.414l3,3,1.414-1.414L16.414,14l2.293-2.293Z"/><path d="M26.707,17.707l3-3a1,1,0,0,0,0-1.414l-3-3-1.414,1.414L27.586,14l-2.293,2.293Z"/><rect x="17.877" y="13" width="8.246" height="1.999" transform="translate(3.082 31.948) rotate(-75.964)"/></g></svg>