<svg xmlns="http://www.w3.org/2000/svg" viewBox="0 0 64 64"><title>color-scheme-theme-custom</title><g id="outline"><path d="M57,44H47a1,1,0,0,0-1,1V57a1,1,0,0,0,1,1H57a1,1,0,0,0,1-1V45A1,1,0,0,0,57,44ZM56,56H48V46h8Z"/><path d="M43.565,28.908a1,1,0,0,0,1.414,0l7.071-7.071a1,1,0,0,0,0-1.414l-8.486-8.485a1.027,1.027,0,0,0-1.414,0l-7.07,7.071a1,1,0,0,0,0,1.414Zm-.708-14.849,7.072,7.071-5.657,5.657L37.2,19.716Z"/><path d="M34.373,39.1a1,1,0,0,0,.707-.293l7.07-7.072a1,1,0,0,0,0-1.414l-8.485-8.485a1.029,1.029,0,0,0-1.414,0l-7.07,7.071a1,1,0,0,0,0,1.414l8.485,8.486A1,1,0,0,0,34.373,39.1ZM32.958,23.958l7.071,7.071-5.656,5.658L27.3,29.615Z"/><path d="M7,18H19a1,1,0,0,0,1-1V7a1,1,0,0,0-1-1H7A1,1,0,0,0,6,7V17A1,1,0,0,0,7,18ZM8,8H18v8H8Z"/><path d="M7,32H19a1,1,0,0,0,1-1V21a1,1,0,0,0-1-1H7a1,1,0,0,0-1,1V31A1,1,0,0,0,7,32ZM8,22H18v8H8Z"/><path d="M20,45V35a1,1,0,0,0-1-1H7a1,1,0,0,0-1,1V45a1,1,0,0,0,1,1H19A1,1,0,0,0,20,45Zm-2-1H8V36H18Z"/><path d="M13,48a4,4,0,1,0,4,4A4,4,0,0,0,13,48Zm0,6a2,2,0,1,1,2-2A2,2,0,0,1,13,54Z"/><path d="M58,40H39.55L55.586,23.958a4,4,0,0,0,0-5.656l-9.9-9.9a3.977,3.977,0,0,0-2.829-1.171h0A3.973,3.973,0,0,0,40.029,8.4L24,24.437V6a4,4,0,0,0-4-4H6A4,4,0,0,0,2,6V51A11.013,11.013,0,0,0,13,62H58a4,4,0,0,0,4-4V44A4,4,0,0,0,58,40ZM24,34.8l6.13,6.13-5.657,5.656L24,46.113Zm-.09,17.538c.012-.094.027-.187.037-.282.032-.349.053-.7.053-1.055V48.864a.982.982,0,0,0,.473.136,1,1,0,0,0,.707-.293l7.071-7.071a1,1,0,0,0,0-1.414L24,31.971V27.266L41.443,9.817a2,2,0,0,1,2.829,0l9.9,9.9a2,2,0,0,1,0,2.828L25.711,51.015,23.84,52.887C23.871,52.705,23.888,52.52,23.91,52.337ZM34,46h8V56H34Zm-6,5.554V56H23.556ZM14.809,59.817c-.25.052-.506.087-.763.117-.045.005-.089.015-.134.02-.3.03-.6.046-.912.046a9.01,9.01,0,0,1-9-9V6A2,2,0,0,1,6,4H20a2,2,0,0,1,2,2V51c0,.308-.016.612-.046.912,0,.046-.015.09-.02.136-.03.257-.066.512-.117.761l-.007.028a9.025,9.025,0,0,1-6.964,6.971ZM60,58a2,2,0,0,1-2,2H19.329a11.1,11.1,0,0,0,1.449-1.222L21.556,58H29a1,1,0,0,0,1-1V49.553l2-2V57a1,1,0,0,0,1,1H43a1,1,0,0,0,1-1V45a1,1,0,0,0-1-1H35.551l2-2H58a2,2,0,0,1,2,2Z"/></g></svg>