<svg xmlns="http://www.w3.org/2000/svg" viewBox="0 0 64 64"><title>create-new-magic-wand</title><g id="outline"><rect x="46" y="26" width="2" height="6"/><rect x="46" y="2" width="2" height="6"/><rect x="56" y="16" width="6" height="2"/><rect x="32" y="16" width="6" height="2"/><rect x="52.485" y="7.515" width="6" height="2" transform="translate(10.229 41.725) rotate(-44.997)"/><rect x="37.515" y="5.515" width="2" height="6" transform="translate(5.261 29.73) rotate(-45.003)"/><rect x="54.485" y="22.485" width="2" height="6" transform="translate(-1.77 46.698) rotate(-45)"/><path d="M6.293,61.707a1,1,0,0,0,1.414,0L42.214,27.214l9.511-9.507a1,1,0,0,0,0-1.414l-4.018-4.018a1,1,0,0,0-1.414,0l-9.511,9.507L2.275,56.275a1,1,0,0,0,0,1.414ZM47,14.4,49.6,17l-8.1,8.093-2.6-2.6ZM37.489,23.9l2.6,2.6L7,59.586l-2.6-2.6Z"/></g></svg>