<svg xmlns="http://www.w3.org/2000/svg" viewBox="0 0 64 64"><title>CSS-style-sheet-theme</title><g id="outline"><path d="M61,36H53a1,1,0,0,0-1,1v7.929l-5.636-5.636a1.029,1.029,0,0,0-1.414,0L39.293,44.95a1,1,0,0,0,0,1.414L44.929,52H37a1,1,0,0,0-1,1v8a1,1,0,0,0,1,1H57a5.006,5.006,0,0,0,5-5V37A1,1,0,0,0,61,36ZM44,60H38V54h6Zm8-12.243v8.486l-4.929-4.929,4.243-4.243Zm-10.586-2.1,4.243-4.243L49.9,45.657,45.657,49.9ZM46,60V54h.929l6,6Zm14-3a3,3,0,0,1-3,3h-.007v-.028a2.907,2.907,0,0,1-2.122-.861A2.989,2.989,0,0,1,54,57V54h6Zm0-5H54V46h6Zm0-8H54V38h6Z"/><rect x="56" y="56" width="2" height="2"/><rect x="32" y="45" width="5" height="2"/><path d="M58,2H14a4,4,0,0,0-4,4V29h2V6a2,2,0,0,1,2-2H58a2,2,0,0,1,2,2V34h2V6A4,4,0,0,0,58,2Z"/><rect x="14" y="6" width="2" height="2"/><rect x="18" y="6" width="2" height="2"/><rect x="22" y="6" width="2" height="2"/><rect x="14" y="10" width="44" height="2"/><rect x="49" y="30" width="9" height="2"/><rect x="32" y="35" width="18" height="2"/><rect x="43" y="20" width="11" height="2"/><rect x="43" y="15" width="8" height="2"/><rect x="53" y="15" width="5" height="2"/><rect x="56" y="20" width="2" height="2"/><rect x="43" y="25" width="15" height="2"/><rect x="38" y="30" width="9" height="2"/><rect x="32" y="40" width="8" height="2"/><path d="M36,24v2a1,1,0,0,1-1,1H33v2h2a3,3,0,0,0,3-3V24.414l1.707-1.707a1,1,0,0,0,0-1.414L38,19.586V18a3,3,0,0,0-3-3H33v2h2a1,1,0,0,1,1,1v2a1,1,0,0,0,.293.707L37.586,22l-1.293,1.293A1,1,0,0,0,36,24Z"/><path d="M20,20V18a1,1,0,0,1,1-1h2V15H21a3,3,0,0,0-3,3v1.586l-1.707,1.707a1,1,0,0,0,0,1.414L18,24.414V26a3,3,0,0,0,3,3h2V27H21a1,1,0,0,1-1-1V24a1,1,0,0,0-.293-.707L18.414,22l1.293-1.293A1,1,0,0,0,20,20Z"/><rect x="23" y="23" width="2" height="2"/><rect x="27" y="23" width="2" height="2"/><rect x="31" y="23" width="2" height="2"/><path d="M5,62H27a3,3,0,0,0,3-3V34a3,3,0,0,0-3-3H5a3,3,0,0,0-3,3V59A3,3,0,0,0,5,62Zm23-3a1,1,0,0,1-1,1H12V41H28ZM4,34a1,1,0,0,1,1-1H27a1,1,0,0,1,1,1v5H4Zm0,7h6V60H5a1,1,0,0,1-1-1Z"/></g></svg>