<svg xmlns="http://www.w3.org/2000/svg" viewBox="0 0 64 64"><title>demo-web-design-mockup-custom-template</title><g id="outline"><path d="M58,10v2a2,2,0,0,1,2,2V44H4V14a2,2,0,0,1,2-2V10a4,4,0,0,0-4,4V48a4,4,0,0,0,4,4H25.656l-2.4,8H21v2H43V60H40.744l-2.4-8H58a4,4,0,0,0,4-4V14A4,4,0,0,0,58,10ZM38.656,60H25.344l2.4-8h8.512ZM60,48a2,2,0,0,1-2,2H6a2,2,0,0,1-2-2V46H60Z"/><path d="M8,6V42h2V6a2,2,0,0,1,2-2H52a2,2,0,0,1,2,2V42h2V6a4,4,0,0,0-4-4H12A4,4,0,0,0,8,6Z"/><rect x="12" y="6" width="2" height="2"/><rect x="16" y="6" width="2" height="2"/><rect x="20" y="6" width="2" height="2"/><rect x="12" y="10" width="40" height="2"/><path d="M24,16a2,2,0,0,0-2-2H14a2,2,0,0,0-2,2v6a2,2,0,0,0,2,2h8a2,2,0,0,0,2-2ZM14,22V16h8v6Z"/><path d="M38,16a2,2,0,0,0-2-2H28a2,2,0,0,0-2,2v6a2,2,0,0,0,2,2h8a2,2,0,0,0,2-2ZM28,22V16h8v6Z"/><path d="M52,16a2,2,0,0,0-2-2H42a2,2,0,0,0-2,2v6a2,2,0,0,0,2,2h8a2,2,0,0,0,2-2ZM42,22V16h8v6Z"/><path d="M24,28a2,2,0,0,0-2-2H14a2,2,0,0,0-2,2v6a2,2,0,0,0,2,2h8a2,2,0,0,0,2-2ZM14,34V28h8v6Z"/><path d="M38,28a2,2,0,0,0-2-2H28a2,2,0,0,0-2,2v6a2,2,0,0,0,2,2h8a2,2,0,0,0,2-2ZM28,34V28h8v6Z"/><path d="M52,28a2,2,0,0,0-2-2H42a2,2,0,0,0-2,2v6a2,2,0,0,0,2,2h8a2,2,0,0,0,2-2ZM42,34V28h8v6Z"/><path d="M24,42V40a2,2,0,0,0-2-2H14a2,2,0,0,0-2,2v2h2V40h8v2Z"/><path d="M38,42V40a2,2,0,0,0-2-2H28a2,2,0,0,0-2,2v2h2V40h8v2Z"/><path d="M52,42V40a2,2,0,0,0-2-2H42a2,2,0,0,0-2,2v2h2V40h8v2Z"/></g></svg>