<svg xmlns="http://www.w3.org/2000/svg" viewBox="0 0 64 64"><title>design-wizard-tools-edit</title><g id="outline"><path d="M22.793,27.207a1,1,0,0,0,1.414,0l3-3a1,1,0,0,0,0-1.414l-4.5-4.5-16-16a1,1,0,0,0-1.414,0l-3,3a1,1,0,0,0,0,1.414l16,16ZM25.086,23.5,23.5,25.086,20.414,22,22,20.414ZM6,4.414,20.586,19,19,20.586,4.414,6Z"/><path d="M48.124,30.008a130.04,130.04,0,0,0-32.248,0A1,1,0,0,0,15,31v4a1,1,0,0,0,1.124.992c1.918-.239,3.842-.42,5.768-.573L20,60.926A1,1,0,0,0,21,62H43a1,1,0,0,0,1-1.074L42.108,35.419c1.926.153,3.85.334,5.768.573A1.032,1.032,0,0,0,48,36a1,1,0,0,0,1-1V31A1,1,0,0,0,48.124,30.008ZM22.077,60l1.407-19H40.516l1.407,19Zm1.555-21,.277-3.737a128.113,128.113,0,0,1,16.182,0L40.368,39ZM47,33.872a130.191,130.191,0,0,0-30,0V31.886a128.209,128.209,0,0,1,30,0Z"/><path d="M32.986,12.836a1,1,0,0,0-1.972,0,3.868,3.868,0,0,1-3.179,3.178,1,1,0,0,0,0,1.972,3.868,3.868,0,0,1,3.179,3.178,1,1,0,0,0,1.972,0,3.868,3.868,0,0,1,3.179-3.178,1,1,0,0,0,0-1.972A3.868,3.868,0,0,1,32.986,12.836ZM32,18.428A5.87,5.87,0,0,0,30.572,17,5.87,5.87,0,0,0,32,15.572,5.87,5.87,0,0,0,33.428,17,5.87,5.87,0,0,0,32,18.428Z"/><path d="M36.835,9.986a3.868,3.868,0,0,1,3.179,3.178,1,1,0,0,0,1.972,0,3.868,3.868,0,0,1,3.179-3.178,1,1,0,0,0,0-1.972,3.868,3.868,0,0,1-3.179-3.178,1,1,0,0,0-1.972,0,3.868,3.868,0,0,1-3.179,3.178,1,1,0,0,0,0,1.972ZM41,7.572A5.87,5.87,0,0,0,42.428,9,5.87,5.87,0,0,0,41,10.428,5.87,5.87,0,0,0,39.572,9,5.87,5.87,0,0,0,41,7.572Z"/><rect x="21.859" y="51.5" width="9.031" height="2" transform="translate(-28.133 74.426) rotate(-85.239)"/><rect x="25.936" y="44" width="2.004" height="2" transform="translate(-19.658 69.072) rotate(-86.417)"/><polygon points="23 5 23 8 20 8 20 10 23 10 23 13 25 13 25 10 28 10 28 8 25 8 25 5 23 5"/></g></svg>