<svg xmlns="http://www.w3.org/2000/svg" viewBox="0 0 64 64"><title>development-programming-design-computer</title><g id="outline"><path d="M58,10v2a2,2,0,0,1,2,2V44H4V14a2,2,0,0,1,2-2V10a4,4,0,0,0-4,4V48a4,4,0,0,0,4,4H25.656l-2.4,8H21v2H43V60H40.744l-2.4-8H58a4,4,0,0,0,4-4V14A4,4,0,0,0,58,10ZM38.656,60H25.344l2.4-8h8.512ZM60,48a2,2,0,0,1-2,2H6a2,2,0,0,1-2-2V46H60Z"/><path d="M12,42H52a4,4,0,0,0,4-4V6a4,4,0,0,0-4-4H12A4,4,0,0,0,8,6V38A4,4,0,0,0,12,42ZM10,6a2,2,0,0,1,2-2H52a2,2,0,0,1,2,2V38a2,2,0,0,1-2,2H12a2,2,0,0,1-2-2Z"/><rect x="12" y="10" width="40" height="2"/><rect x="12" y="15" width="9" height="2"/><rect x="12" y="19" width="7" height="2"/><rect x="12" y="23" width="6" height="2"/><rect x="12" y="27" width="6" height="2"/><rect x="12" y="31" width="6" height="2"/><rect x="12" y="35" width="9" height="2"/><rect x="43" y="15" width="9" height="2"/><rect x="45" y="19" width="7" height="2"/><rect x="46" y="23" width="6" height="2"/><rect x="46" y="27" width="6" height="2"/><rect x="46" y="31" width="6" height="2"/><rect x="43" y="35" width="9" height="2"/><rect x="12" y="6" width="2" height="2"/><rect x="16" y="6" width="2" height="2"/><rect x="20" y="6" width="2" height="2"/><path d="M40.116,29.873A9.266,9.266,0,0,0,40.478,29H43a1,1,0,0,0,1-1V24a1,1,0,0,0-1-1H40.478a9.266,9.266,0,0,0-.362-.873L41.9,20.343a1,1,0,0,0,0-1.414L39.071,16.1a1,1,0,0,0-1.414,0l-1.784,1.783A9.266,9.266,0,0,0,35,17.522V15a1,1,0,0,0-1-1H30a1,1,0,0,0-1,1v2.522a9.266,9.266,0,0,0-.873.362L26.343,16.1a1,1,0,0,0-1.414,0L22.1,18.929a1,1,0,0,0,0,1.414l1.783,1.784a9.266,9.266,0,0,0-.362.873H21a1,1,0,0,0-1,1v4a1,1,0,0,0,1,1h2.522a9.266,9.266,0,0,0,.362.873L22.1,31.657a1,1,0,0,0,0,1.414L24.929,35.9a1,1,0,0,0,1.414,0l1.784-1.783a9.266,9.266,0,0,0,.873.362V37a1,1,0,0,0,1,1h4a1,1,0,0,0,1-1V34.478a9.266,9.266,0,0,0,.873-.362L37.657,35.9a1,1,0,0,0,1.414,0L41.9,33.071a1,1,0,0,0,0-1.414Zm-1.752,3.9-1.6-1.6a1,1,0,0,0-1.216-.154,7,7,0,0,1-1.8.745,1,1,0,0,0-.75.968V36H31V33.738a1,1,0,0,0-.75-.968,7,7,0,0,1-1.8-.745,1,1,0,0,0-1.216.154l-1.6,1.6-1.414-1.414,1.6-1.6a1,1,0,0,0,.154-1.216,7,7,0,0,1-.745-1.8,1,1,0,0,0-.968-.75H22V25h2.262a1,1,0,0,0,.968-.75,7,7,0,0,1,.745-1.8,1,1,0,0,0-.154-1.216l-1.6-1.6,1.414-1.414,1.6,1.6a1,1,0,0,0,1.216.154,7,7,0,0,1,1.8-.745,1,1,0,0,0,.75-.968V16h2v2.262a1,1,0,0,0,.75.968,7,7,0,0,1,1.8.745,1,1,0,0,0,1.216-.154l1.6-1.6,1.414,1.414-1.6,1.6a1,1,0,0,0-.154,1.216,7,7,0,0,1,.745,1.8,1,1,0,0,0,.968.75H42v2H39.738a1,1,0,0,0-.968.75,7,7,0,0,1-.745,1.8,1,1,0,0,0,.154,1.216l1.6,1.6Z"/><path d="M32,21a5,5,0,1,0,5,5A5.006,5.006,0,0,0,32,21Zm0,8a3,3,0,1,1,3-3A3,3,0,0,1,32,29Z"/></g></svg>