<svg xmlns="http://www.w3.org/2000/svg" viewBox="0 0 64 64"><title>dummy-design-mockup-custom-template</title><g id="outline"><path d="M6,48h6V46H6a2,2,0,0,1-2-2V12a2,2,0,0,1,2-2H52a2,2,0,0,1,2,2v2h2V12a4,4,0,0,0-4-4H6a4,4,0,0,0-4,4V44A4,4,0,0,0,6,48Z"/><path d="M58,16H18a4,4,0,0,0-4,4V52a4,4,0,0,0,4,4H58a4,4,0,0,0,4-4V20A4,4,0,0,0,58,16Zm2,36a2,2,0,0,1-2,2H18a2,2,0,0,1-2-2V20a2,2,0,0,1,2-2H58a2,2,0,0,1,2,2Z"/><path d="M57,24H19a1,1,0,0,0-1,1V37a1,1,0,0,0,1,1H57a1,1,0,0,0,1-1V25A1,1,0,0,0,57,24Zm-6.487,2L38,29.951,25.487,26ZM20,26.364,34.679,31,20,35.636ZM25.487,36,38,32.049,50.513,36ZM56,35.636,41.321,31,56,26.364Z"/><path d="M29,40H19a1,1,0,0,0-1,1v6a1,1,0,0,0,1,1H29a1,1,0,0,0,1-1V41A1,1,0,0,0,29,40Zm-1,6H20V42h8Z"/><rect x="18" y="50" width="12" height="2"/><path d="M43,40H33a1,1,0,0,0-1,1v6a1,1,0,0,0,1,1H43a1,1,0,0,0,1-1V41A1,1,0,0,0,43,40Zm-1,6H34V42h8Z"/><rect x="32" y="50" width="12" height="2"/><path d="M57,40H47a1,1,0,0,0-1,1v6a1,1,0,0,0,1,1H57a1,1,0,0,0,1-1V41A1,1,0,0,0,57,40Zm-1,6H48V42h8Z"/><rect x="46" y="50" width="12" height="2"/><rect x="18" y="20" width="6" height="2"/><rect x="26" y="20" width="6" height="2"/><rect x="34" y="20" width="6" height="2"/><rect x="42" y="20" width="6" height="2"/><rect x="6" y="12" width="6" height="2"/><rect x="14" y="12" width="6" height="2"/><rect x="22" y="12" width="6" height="2"/><rect x="30" y="12" width="6" height="2"/><rect x="6" y="19" width="6" height="2"/><rect x="6" y="23" width="6" height="2"/><rect x="6" y="27" width="6" height="2"/><rect x="6" y="31" width="6" height="2"/><rect x="6" y="41" width="6" height="2"/><rect x="6" y="37" width="6" height="2"/></g></svg>