<svg xmlns="http://www.w3.org/2000/svg" viewBox="0 0 64 64"><title>error-404-warning-computer-program</title><g id="outline"><path d="M61,44H59V13a5.006,5.006,0,0,0-5-5H10a5.006,5.006,0,0,0-5,5V44H3a1,1,0,0,0-1,1v3a4,4,0,0,0,4,4H58a4,4,0,0,0,4-4V45A1,1,0,0,0,61,44ZM7,13a3,3,0,0,1,3-3H54a3,3,0,0,1,3,3V44H55V13a1,1,0,0,0-1-1H10a1,1,0,0,0-1,1V44H7Zm46,1V44H38.118a2.794,2.794,0,0,0-2.512,1.553.805.805,0,0,1-.724.447H29.118a.805.805,0,0,1-.724-.447A2.794,2.794,0,0,0,25.882,44H11V14Zm7,34a2,2,0,0,1-2,2H6a2,2,0,0,1-2-2V46H25.882a.805.805,0,0,1,.724.447A2.794,2.794,0,0,0,29.118,48h5.764a2.794,2.794,0,0,0,2.512-1.553A.805.805,0,0,1,38.118,46H60Z"/><path d="M20.8,40h22.41a2,2,0,0,0,1.7-3.053l-11.2-18.1a2,2,0,0,0-3.4,0l-11.206,18.1A2,2,0,0,0,20.8,40ZM32,19.9,43.205,38H20.8Z"/><rect x="31" y="26" width="2" height="6"/><rect x="31" y="34" width="2" height="2"/></g></svg>