<svg xmlns="http://www.w3.org/2000/svg" viewBox="0 0 64 64"><title>feature-application-program-custom</title><g id="outline"><path d="M6,54H8V52H6a2,2,0,0,1-2-2V10A2,2,0,0,1,6,8H50a2,2,0,0,1,2,2v2h2V10a4,4,0,0,0-4-4H6a4,4,0,0,0-4,4V50A4,4,0,0,0,6,54Z"/><rect x="6" y="10" width="2" height="2"/><rect x="10" y="10" width="2" height="2"/><rect x="14" y="10" width="2" height="2"/><path d="M10,58a4,4,0,0,0,4,4H58a4,4,0,0,0,4-4V18a4,4,0,0,0-4-4H14a4,4,0,0,0-4,4Zm2-40a2,2,0,0,1,2-2H58a2,2,0,0,1,2,2V58a2,2,0,0,1-2,2H14a2,2,0,0,1-2-2Z"/><rect x="14" y="18" width="2" height="2"/><rect x="18" y="18" width="2" height="2"/><rect x="22" y="18" width="2" height="2"/><rect x="14" y="22" width="44" height="2"/><rect x="14" y="27" width="8" height="2"/><rect x="14" y="31" width="6" height="2"/><path d="M36,35a7,7,0,1,0,7,7A7.008,7.008,0,0,0,36,35Zm0,12a5,5,0,1,1,5-5A5.006,5.006,0,0,1,36,47Z"/><path d="M52,39a1,1,0,0,0-1-1H48.357a12.7,12.7,0,0,0-.791-1.91l1.869-1.868a1,1,0,0,0,0-1.414l-4.243-4.243a1,1,0,0,0-1.414,0L41.91,30.433a12.9,12.9,0,0,0-1.91-.79V27a1,1,0,0,0-1-1H33a1,1,0,0,0-1,1v2.643a12.9,12.9,0,0,0-1.91.79l-1.868-1.868a1,1,0,0,0-1.414,0l-4.243,4.243a1,1,0,0,0,0,1.414l1.868,1.868c-.084.164-.164.328-.24.494A12.918,12.918,0,0,0,23.643,38H21a1,1,0,0,0-1,1v6a1,1,0,0,0,1,1h2.643a12.7,12.7,0,0,0,.791,1.91l-1.869,1.868a1,1,0,0,0,0,1.414l4.243,4.243a1,1,0,0,0,1.414,0l1.868-1.868a12.9,12.9,0,0,0,1.91.79V57a1,1,0,0,0,1,1h6a1,1,0,0,0,1-1V54.357a12.9,12.9,0,0,0,1.91-.79l1.868,1.868a1,1,0,0,0,1.414,0l4.243-4.243a1,1,0,0,0,0-1.414L47.566,47.91A12.7,12.7,0,0,0,48.357,46H51a1,1,0,0,0,1-1Zm-2,5H47.606a1,1,0,0,0-.968.75,10.939,10.939,0,0,1-1.17,2.828,1,1,0,0,0,.154,1.215l1.691,1.692-2.828,2.829-1.692-1.692a1,1,0,0,0-1.216-.154,10.918,10.918,0,0,1-2.827,1.17,1,1,0,0,0-.75.968V56H34V53.606a1,1,0,0,0-.75-.968,10.918,10.918,0,0,1-2.827-1.17,1,1,0,0,0-1.216.154l-1.692,1.692-2.828-2.829,1.691-1.692a1,1,0,0,0,.154-1.215,10.939,10.939,0,0,1-1.17-2.828,1,1,0,0,0-.968-.75H22V40h2.394a1,1,0,0,0,.968-.75,10.881,10.881,0,0,1,.65-1.833,11.067,11.067,0,0,1,.52-1,1,1,0,0,0-.154-1.214l-1.691-1.692,2.828-2.829,1.692,1.692a1,1,0,0,0,1.216.154,10.918,10.918,0,0,1,2.827-1.17,1,1,0,0,0,.75-.968V28h4v2.394a1,1,0,0,0,.75.968,10.918,10.918,0,0,1,2.827,1.17,1,1,0,0,0,1.216-.154l1.692-1.692,2.828,2.829-1.691,1.692a1,1,0,0,0-.154,1.215,10.939,10.939,0,0,1,1.17,2.828,1,1,0,0,0,.968.75H50Z"/><rect x="52" y="56" width="6" height="2"/></g></svg>