<svg xmlns="http://www.w3.org/2000/svg" viewBox="0 0 64 64"><title>folder-management-data-structure</title><g id="outline"><path d="M58,2H12A4,4,0,0,0,8,6V30h2V6a2,2,0,0,1,2-2H58a2,2,0,0,1,2,2V46a2,2,0,0,1-2,2H37v2H58a4,4,0,0,0,4-4V6A4,4,0,0,0,58,2Z"/><rect x="12" y="6" width="2" height="2"/><rect x="16" y="6" width="2" height="2"/><rect x="20" y="6" width="2" height="2"/><rect x="12" y="10" width="46" height="2"/><path d="M12,26a1,1,0,0,0,1,1H25a1,1,0,0,0,1-1V18a1,1,0,0,0-1-1H20.414l-1.707-1.707A1,1,0,0,0,18,15H13a1,1,0,0,0-1,1Zm2-9h3.586l1.707,1.707A1,1,0,0,0,20,19h4v6H14Z"/><path d="M42,18a1,1,0,0,0-1-1H36.414l-1.707-1.707A1,1,0,0,0,34,15H29a1,1,0,0,0-1,1V26a1,1,0,0,0,1,1H41a1,1,0,0,0,1-1Zm-2,7H30V17h3.586l1.707,1.707A1,1,0,0,0,36,19h4Z"/><path d="M58,18a1,1,0,0,0-1-1H52.414l-1.707-1.707A1,1,0,0,0,50,15H45a1,1,0,0,0-1,1V26a1,1,0,0,0,1,1H57a1,1,0,0,0,1-1Zm-2,7H46V17h3.586l1.707,1.707A1,1,0,0,0,52,19h4Z"/><path d="M37,41v2h4a1,1,0,0,0,1-1V34a1,1,0,0,0-1-1H36.414l-1.707-1.707A1,1,0,0,0,34,31H31v2h2.586l1.707,1.707A1,1,0,0,0,36,35h4v6Z"/><path d="M57,33H52.414l-1.707-1.707A1,1,0,0,0,50,31H45a1,1,0,0,0-1,1V42a1,1,0,0,0,1,1H57a1,1,0,0,0,1-1V34A1,1,0,0,0,57,33Zm-1,8H46V33h3.586l1.707,1.707A1,1,0,0,0,52,35h4Z"/><path d="M6.643,42H4a1,1,0,0,0-1,1v6a1,1,0,0,0,1,1H6.643a12.949,12.949,0,0,0,.79,1.91L5.565,53.778a1,1,0,0,0,0,1.414l4.243,4.243a1,1,0,0,0,1.414,0l1.868-1.868a12.949,12.949,0,0,0,1.91.79V61a1,1,0,0,0,1,1h6a1,1,0,0,0,1-1V58.357a12.949,12.949,0,0,0,1.91-.79l1.868,1.868a1,1,0,0,0,1.414,0l4.243-4.243a1,1,0,0,0,0-1.414L30.567,51.91a12.949,12.949,0,0,0,.79-1.91H34a1,1,0,0,0,1-1V43a1,1,0,0,0-1-1H31.357a12.949,12.949,0,0,0-.79-1.91l1.868-1.868a1,1,0,0,0,0-1.414l-4.243-4.243a1,1,0,0,0-1.414,0L24.91,34.433a12.949,12.949,0,0,0-1.91-.79V31a1,1,0,0,0-1-1H16a1,1,0,0,0-1,1v2.643a12.949,12.949,0,0,0-1.91.79l-1.868-1.868a1,1,0,0,0-1.414,0L5.565,36.808a1,1,0,0,0,0,1.414L7.433,40.09c-.083.162-.163.327-.239.493A12.985,12.985,0,0,0,6.643,42Zm1.719,1.25a10.9,10.9,0,0,1,1.17-2.828,1,1,0,0,0-.154-1.215L7.686,37.515l2.829-2.829,1.692,1.692a1,1,0,0,0,1.215.154,10.939,10.939,0,0,1,2.828-1.17,1,1,0,0,0,.75-.968V32h4v2.394a1,1,0,0,0,.75.968,10.939,10.939,0,0,1,2.828,1.17,1,1,0,0,0,1.215-.154l1.692-1.692,2.829,2.829-1.692,1.692a1,1,0,0,0-.154,1.215,10.939,10.939,0,0,1,1.17,2.828,1,1,0,0,0,.968.75H33v4H30.606a1,1,0,0,0-.968.75,10.939,10.939,0,0,1-1.17,2.828,1,1,0,0,0,.154,1.215l1.692,1.692-2.829,2.829-1.692-1.692a1,1,0,0,0-1.215-.154,10.939,10.939,0,0,1-2.828,1.17,1,1,0,0,0-.75.968V60H17V57.606a1,1,0,0,0-.75-.968,10.939,10.939,0,0,1-2.828-1.17,1,1,0,0,0-1.215.154l-1.692,1.692L7.686,54.485l1.692-1.692a1,1,0,0,0,.154-1.215,10.939,10.939,0,0,1-1.17-2.828A1,1,0,0,0,7.394,48H5V44H7.394A1,1,0,0,0,8.362,43.25Z"/><path d="M19,53a7,7,0,1,0-7-7A7.008,7.008,0,0,0,19,53Zm0-12a5,5,0,1,1-5,5A5.006,5.006,0,0,1,19,41Z"/></g></svg>