<svg xmlns="http://www.w3.org/2000/svg" viewBox="0 0 64 64"><title>font-edit-text-wording</title><g id="outline"><path d="M3,20H7a1,1,0,0,0,.983-.821l1.4-7.715A3,3,0,0,1,12.338,9H18V51.838a2,2,0,0,1-1.368,1.9L9.684,56.051A1,1,0,0,0,9,57v4a1,1,0,0,0,1,1H38a1,1,0,0,0,1-1V57a1,1,0,0,0-.684-.949l-6.948-2.316A2,2,0,0,1,30,51.838V9h5.662a3,3,0,0,1,2.952,2.463l1.4,7.716A1,1,0,0,0,41,20h4a1,1,0,0,0,1-1V3a1,1,0,0,0-1-1H3A1,1,0,0,0,2,3V19A1,1,0,0,0,3,20ZM4,4H44V18H41.835l-1.254-6.895A5,5,0,0,0,35.662,7H29a1,1,0,0,0-1,1V51.838a4,4,0,0,0,2.735,3.794L37,57.721V60H11V57.721l6.265-2.089A4,4,0,0,0,20,51.838V8a1,1,0,0,0-1-1H12.338a5,5,0,0,0-4.919,4.106L6.165,18H4Z"/><path d="M49,48a1,1,0,0,0-.9,1.447l6,12a1,1,0,0,0,1.79,0l6-12A1,1,0,0,0,61,48H58V16h3a1,1,0,0,0,.9-1.447l-6-12a1.042,1.042,0,0,0-1.79,0l-6,12A1,1,0,0,0,49,16h3V48Zm4-34H50.618L55,5.236,59.382,14H57a1,1,0,0,0-1,1V49a1,1,0,0,0,1,1h2.382L55,58.764,50.618,50H53a1,1,0,0,0,1-1V15A1,1,0,0,0,53,14Z"/></g></svg>