<svg xmlns="http://www.w3.org/2000/svg" viewBox="0 0 64 64"><title>Html-coding-computer-programing-algorithm</title><g id="outline"><path d="M6,46H8V44H6a2,2,0,0,1-2-2V6A2,2,0,0,1,6,4H50a2,2,0,0,1,2,2V8h2V6a4,4,0,0,0-4-4H6A4,4,0,0,0,2,6V42A4,4,0,0,0,6,46Z"/><rect x="6" y="6" width="2" height="2"/><rect x="10" y="6" width="2" height="2"/><rect x="14" y="6" width="2" height="2"/><path d="M58,10H14a4,4,0,0,0-4,4V50a4,4,0,0,0,4,4H58a4,4,0,0,0,4-4V14A4,4,0,0,0,58,10Zm2,40a2,2,0,0,1-2,2H14a2,2,0,0,1-2-2V14a2,2,0,0,1,2-2H58a2,2,0,0,1,2,2Z"/><rect x="14" y="14" width="2" height="2"/><rect x="18" y="14" width="2" height="2"/><rect x="22" y="14" width="2" height="2"/><rect x="14" y="18" width="44" height="2"/><rect x="16" y="35" width="6" height="2"/><rect x="16" y="40" width="21" height="2"/><rect x="16" y="45" width="11" height="2"/><rect x="34" y="30" width="10" height="2"/><rect x="49" y="40" width="7" height="2"/><rect x="40" y="45" width="16" height="2"/><rect x="25" y="35" width="15" height="2"/><rect x="34" y="25" width="7" height="2"/><rect x="43" y="25" width="13" height="2"/><rect x="29" y="45" width="9" height="2"/><rect x="42" y="35" width="14" height="2"/><rect x="46" y="30" width="10" height="2"/><rect x="39" y="40" width="8" height="2"/><path d="M19.293,24.293l-3,3a1,1,0,0,0,0,1.414l3,3,1.414-1.414L18.414,28l2.293-2.293Z"/><path d="M28.707,31.707l3-3a1,1,0,0,0,0-1.414l-3-3-1.414,1.414L29.586,28l-2.293,2.293Z"/><rect x="19.877" y="27" width="8.246" height="2" transform="translate(-8.987 44.489) rotate(-75.957)"/><path d="M47,56H25a1,1,0,0,0-.707.293l-2,2a1,1,0,0,0,0,1.414l2,2A1,1,0,0,0,25,62H47a3,3,0,0,0,0-6Zm-3,4H25.414l-1-1,1-1H44Zm3,0H46V58h1a1,1,0,0,1,0,2Z"/></g></svg>