<svg xmlns="http://www.w3.org/2000/svg" viewBox="0 0 64 64"><title>logo-image-picture-attach</title><g id="outline"><path d="M20,2a5.006,5.006,0,0,0-5,5v3H11a1,1,0,0,0-1,1V61a1,1,0,0,0,1,1H53a1,1,0,0,0,1-1V21c0-.021-.011-.04-.012-.061a1,1,0,0,0-.052-.26c-.011-.032-.019-.062-.033-.093a1,1,0,0,0-.2-.293l-10-10a.97.97,0,0,0-.292-.195c-.032-.015-.063-.023-.1-.035a1,1,0,0,0-.254-.05c-.022,0-.042-.013-.065-.013H25V7A5.006,5.006,0,0,0,20,2ZM17,7a3,3,0,0,1,6,0v3H17Zm27,6.414L50.586,20H44ZM42,12v9a1,1,0,0,0,1,1h9V60H12V12H23v7a3,3,0,0,1-6,0V15H15v4a5,5,0,0,0,10,0V12Z"/><path d="M15,27V56a1,1,0,0,0,1,1H48a1,1,0,0,0,1-1V27a1,1,0,0,0-1-1H16A1,1,0,0,0,15,27Zm2,1H47V46.586l-5.793-5.793a1,1,0,0,0-1.414,0l-4.75,4.75-7.3-8.208A1,1,0,0,0,27.029,37a.982.982,0,0,0-.736.293L17,46.586Zm0,21.414,9.957-9.957,7.3,8.208a1,1,0,0,0,.718.335.953.953,0,0,0,.736-.293L40.5,42.914l6.5,6.5V55H17Z"/><path d="M35,39a4,4,0,1,0-4-4A4,4,0,0,0,35,39Zm0-6a2,2,0,1,1-2,2A2,2,0,0,1,35,33Z"/></g></svg>