<svg xmlns="http://www.w3.org/2000/svg" viewBox="0 0 64 64"><title>mobile-app-application-development</title><g id="outline"><path d="M52.948,25.263,51.6,26.737l6.133,5.622A7.018,7.018,0,0,1,60,37.52V62h2V37.52a9.023,9.023,0,0,0-2.918-6.635Z"/><path d="M45,2H19a5.006,5.006,0,0,0-5,5V57a5.006,5.006,0,0,0,5,5H44V60.211a22.738,22.738,0,0,1,3.832-12.656,1,1,0,0,0-.125-1.262l-7-7a3.243,3.243,0,0,1,.238-4.8,3.368,3.368,0,0,1,4.477.345l9.871,9.871,1.414-1.414L50,36.586V7A5.006,5.006,0,0,0,45,2Zm3,32.586-1.164-1.164a5.383,5.383,0,0,0-7.164-.474,5.245,5.245,0,0,0-.379,7.759l6.43,6.43A24.729,24.729,0,0,0,42.007,60H19a3,3,0,0,1-3-3V54H41V52H16V10H48ZM48,8H16V7a3,3,0,0,1,3-3H45a3,3,0,0,1,3,3Z"/><path d="M20,20h4a2,2,0,0,0,2-2V14a2,2,0,0,0-2-2H20a2,2,0,0,0-2,2v4A2,2,0,0,0,20,20Zm0-6h4l0,4H20Z"/><path d="M30,20h4a2,2,0,0,0,2-2V14a2,2,0,0,0-2-2H30a2,2,0,0,0-2,2v4A2,2,0,0,0,30,20Zm0-6h4l0,4H30Z"/><path d="M40,20h4a2,2,0,0,0,2-2V14a2,2,0,0,0-2-2H40a2,2,0,0,0-2,2v4A2,2,0,0,0,40,20Zm0-6h4l0,4H40Z"/><path d="M20,30h4a2,2,0,0,0,2-2V24a2,2,0,0,0-2-2H20a2,2,0,0,0-2,2v4A2,2,0,0,0,20,30Zm0-6h4l0,4H20Z"/><path d="M20,40h4a2,2,0,0,0,2-2V34a2,2,0,0,0-2-2H20a2,2,0,0,0-2,2v4A2,2,0,0,0,20,40Zm0-6h4l0,4H20Z"/><path d="M30,30h4a2,2,0,0,0,2-2V24a2,2,0,0,0-2-2H30a2,2,0,0,0-2,2v4A2,2,0,0,0,30,30Zm0-6h4l0,4H30Z"/><path d="M40,30h4a2,2,0,0,0,2-2V24a2,2,0,0,0-2-2H40a2,2,0,0,0-2,2v4A2,2,0,0,0,40,30Zm0-6h4l0,4H40Z"/><path d="M30,40h4a2,2,0,0,0,2-2V34a2,2,0,0,0-2-2H30a2,2,0,0,0-2,2v4A2,2,0,0,0,30,40Zm0-6h4l0,4H30Z"/><path d="M20,50h4a2,2,0,0,0,2-2V44a2,2,0,0,0-2-2H20a2,2,0,0,0-2,2v4A2,2,0,0,0,20,50Zm0-6h4l0,4H20Z"/><path d="M30,50h4a2,2,0,0,0,2-2V44a2,2,0,0,0-2-2H30a2,2,0,0,0-2,2v4A2,2,0,0,0,30,50Zm0-6h4l0,4H30Z"/><rect x="31" y="56" width="2" height="2"/></g></svg>