<svg xmlns="http://www.w3.org/2000/svg" viewBox="0 0 64 64"><title>mockup-design-develop-website</title><g id="outline"><path d="M52,2H12A4,4,0,0,0,8,6V58a4,4,0,0,0,4,4H52a4,4,0,0,0,4-4V6A4,4,0,0,0,52,2Zm2,56a2,2,0,0,1-2,2H12a2,2,0,0,1-2-2V6a2,2,0,0,1,2-2H52a2,2,0,0,1,2,2Z"/><path d="M51,7H13a1,1,0,0,0-1,1v8a1,1,0,0,0,1,1H51a1,1,0,0,0,1-1V8A1,1,0,0,0,51,7Zm-1,8H14V9H50Z"/><rect x="16" y="11" width="6" height="2"/><rect x="24" y="11" width="6" height="2"/><rect x="32" y="11" width="6" height="2"/><rect x="40" y="11" width="6" height="2"/><path d="M51,19H13a1,1,0,0,0-1,1V34a1,1,0,0,0,1,1H51a1,1,0,0,0,1-1V20A1,1,0,0,0,51,19Zm-5.607,2L32,25.934,18.607,21ZM14,21.434,29.107,27,14,32.566ZM18.607,33,32,28.066,45.393,33ZM50,32.566,34.893,27,50,21.434Z"/><path d="M23,37H13a1,1,0,0,0-1,1V48a1,1,0,0,0,1,1H23a1,1,0,0,0,1-1V38A1,1,0,0,0,23,37Zm-2.414,2L18,41.586,15.414,39ZM14,40.414,16.586,43,14,45.586ZM15.414,47,18,44.414,20.586,47ZM22,45.586,19.414,43,22,40.414Z"/><path d="M37,37H27a1,1,0,0,0-1,1V48a1,1,0,0,0,1,1H37a1,1,0,0,0,1-1V38A1,1,0,0,0,37,37Zm-2.414,2L32,41.586,29.414,39ZM28,40.414,30.586,43,28,45.586ZM29.414,47,32,44.414,34.586,47ZM36,45.586,33.414,43,36,40.414Z"/><path d="M51,37H41a1,1,0,0,0-1,1V48a1,1,0,0,0,1,1H51a1,1,0,0,0,1-1V38A1,1,0,0,0,51,37Zm-2.414,2L46,41.586,43.414,39ZM42,40.414,44.586,43,42,45.586ZM43.414,47,46,44.414,48.586,47ZM50,45.586,47.414,43,50,40.414Z"/><rect x="12" y="51" width="12" height="2"/><rect x="12" y="55" width="12" height="2"/><rect x="26" y="51" width="12" height="2"/><rect x="26" y="55" width="12" height="2"/><rect x="40" y="51" width="12" height="2"/><rect x="40" y="55" width="12" height="2"/></g></svg>