<svg xmlns="http://www.w3.org/2000/svg" viewBox="0 0 64 64"><title>newsletter-news-letter-newspaper</title><g id="outline"><rect x="6" y="6" width="40" height="2"/><rect x="6" y="28" width="40" height="2"/><path d="M45,10H7a1,1,0,0,0-1,1V25a1,1,0,0,0,1,1H45a1,1,0,0,0,1-1V11A1,1,0,0,0,45,10ZM44,24H8V12H44Z"/><path d="M7,42H17a1,1,0,0,0,1-1V33a1,1,0,0,0-1-1H7a1,1,0,0,0-1,1v8A1,1,0,0,0,7,42Zm1-8h8v6H8Z"/><path d="M31,42a1,1,0,0,0,1-1V33a1,1,0,0,0-1-1H21a1,1,0,0,0-1,1v8a1,1,0,0,0,1,1Zm-9-8h8v6H22Z"/><path d="M45,32H35a1,1,0,0,0-1,1v8a1,1,0,0,0,1,1H45a1,1,0,0,0,1-1V33A1,1,0,0,0,45,32Zm-1,8H36V34h8Z"/><rect x="6" y="44" width="12" height="2"/><rect x="6" y="48" width="12" height="2"/><rect x="6" y="52" width="12" height="2"/><rect x="20" y="44" width="12" height="2"/><rect x="20" y="48" width="12" height="2"/><rect x="20" y="52" width="12" height="2"/><rect x="34" y="44" width="12" height="2"/><rect x="34" y="48" width="12" height="2"/><rect x="34" y="52" width="12" height="2"/><path d="M60,55a5,5,0,0,1-10,0V3a1,1,0,0,0-1-1H3A1,1,0,0,0,2,3V55a7.009,7.009,0,0,0,7,7H55a7.009,7.009,0,0,0,7-7V18H60ZM9,60a5.006,5.006,0,0,1-5-5V4H48V55a7.106,7.106,0,0,0,.037.719c.009.092.028.181.041.271.021.143.038.287.067.427.022.108.054.212.082.318s.056.24.093.356.081.223.122.334.073.21.116.311.106.222.16.332c.046.094.088.191.138.282.06.109.128.213.194.318.054.087.1.177.161.262.07.1.147.2.221.3.063.082.122.166.187.246s.162.179.244.268.14.157.214.23c.01.01.019.021.028.031Z"/><path d="M52,10V55a3,3,0,0,0,6,0V14H56V55a1,1,0,0,1-2,0V10Z"/><rect x="8" y="56" width="38" height="2"/></g></svg>