<svg xmlns="http://www.w3.org/2000/svg" viewBox="0 0 64 64"><title>planning-computer-program-project</title><g id="outline"><path d="M61,8H10V3A1,1,0,0,0,9,2H6A4,4,0,0,0,2,6V46a4,4,0,0,0,4,4H54a1.005,1.005,0,0,0,.707-.293l7-7a1,1,0,0,0,.2-.293c.014-.031.022-.062.033-.094a.945.945,0,0,0,.051-.257c0-.022.013-.041.013-.063V9A1,1,0,0,0,61,8ZM4,9V6A2,2,0,0,1,6,4H8V42H6a3.97,3.97,0,0,0-2,.537ZM55,46.586V43h3.586ZM60,41H54a1,1,0,0,0-1,1v6H6a2,2,0,0,1,0-4H9a1,1,0,0,0,1-1V10H60Z"/><path d="M13,44H25a1,1,0,0,0,1-1V41h6v2a1,1,0,0,0,1,1H45a1,1,0,0,0,1-1V37a1,1,0,0,0-1-1H33a1,1,0,0,0-1,1v2H26V37a1,1,0,0,0-1-1H20V32h5a1,1,0,0,0,1-1V29h6v2a1,1,0,0,0,1,1H45a1,1,0,0,0,1-1V25a1,1,0,0,0-1-1H40V20h5a1,1,0,0,0,1-1V13a1,1,0,0,0-1-1H33a1,1,0,0,0-1,1v2H26V13a1,1,0,0,0-1-1H13a1,1,0,0,0-1,1v6a1,1,0,0,0,1,1H25a1,1,0,0,0,1-1V17h6v2a1,1,0,0,0,1,1h5v4H33a1,1,0,0,0-1,1v2H26V25a1,1,0,0,0-1-1H13a1,1,0,0,0-1,1v6a1,1,0,0,0,1,1h5v4H13a1,1,0,0,0-1,1v6A1,1,0,0,0,13,44Zm21-6H44v4H34ZM24,18H14V14H24Zm10,0V14H44v4Zm0,8H44v4H34ZM14,30V26H24v4Zm0,8H24v4H14Z"/><rect x="48" y="12" width="8" height="2"/><rect x="48" y="16" width="4" height="2"/><rect x="48" y="24" width="8" height="2"/><rect x="48" y="28" width="8" height="2"/><rect x="48" y="37" width="8" height="2"/><rect x="48" y="41" width="3" height="2"/><rect x="54" y="16" width="2" height="2"/><path d="M18.445,61.832A1.006,1.006,0,0,0,19,62H49a5,5,0,0,0,0-10H19a1.006,1.006,0,0,0-.555.168L12.7,56H11v2h1.7ZM48,54h1a3,3,0,0,1,0,6H48Zm-4,0h2v6H44ZM20,54H42v2H20Zm0,4H42v2H20Zm-2-3.132v4.264L14.8,57Z"/></g></svg>