<svg xmlns="http://www.w3.org/2000/svg" viewBox="0 0 64 64"><title>responsive-web-design-development</title><g id="outline"><path d="M4,14a2,2,0,0,1,2-2H54a2,2,0,0,1,2,2V28h2V14a4,4,0,0,0-4-4H6a4,4,0,0,0-4,4V48a4,4,0,0,0,4,4H23.656l-2.4,8H19v2H41V60H38.744l-2.4-8H41V50H6a2,2,0,0,1-2-2V46H41V44H4ZM25.744,52h8.512l2.4,8H23.344Z"/><path d="M54,28V15a1,1,0,0,0-1-1H7a1,1,0,0,0-1,1V42H8V24H52v4ZM8,22V16H52v6Z"/><rect x="11" y="18" width="6" height="2"/><rect x="19" y="18" width="6" height="2"/><rect x="27" y="18" width="6" height="2"/><rect x="35" y="18" width="6" height="2"/><path d="M22,27a1,1,0,0,0-1-1H11a1,1,0,0,0-1,1v8a1,1,0,0,0,1,1H21a1,1,0,0,0,1-1Zm-2,7H12V28h8Z"/><path d="M36,27a1,1,0,0,0-1-1H25a1,1,0,0,0-1,1v8a1,1,0,0,0,1,1H35a1,1,0,0,0,1-1Zm-2,7H26V28h8Z"/><path d="M40,28H50V27a1,1,0,0,0-1-1H39a1,1,0,0,0-1,1v8a1,1,0,0,0,1,1h2V34H40Z"/><path d="M22,42V39a1,1,0,0,0-1-1H11a1,1,0,0,0-1,1v3h2V40h8v2Z"/><path d="M36,42V39a1,1,0,0,0-1-1H25a1,1,0,0,0-1,1v3h2V40h8v2Z"/><path d="M38,39v3h2V40h1V38H39A1,1,0,0,0,38,39Z"/><path d="M58,30H47a4,4,0,0,0-4,4V58a4,4,0,0,0,4,4H58a4,4,0,0,0,4-4V34A4,4,0,0,0,58,30Zm2,28a2,2,0,0,1-2,2H47a2,2,0,0,1-2-2V57H60Zm0-3H45V34a2,2,0,0,1,2-2H58a2,2,0,0,1,2,2Z"/><path d="M57,38H48a1,1,0,0,0-1,1v8a1,1,0,0,0,1,1h9a1,1,0,0,0,1-1V39A1,1,0,0,0,57,38Zm-1,8H49V40h7Z"/><path d="M57,50H48a1,1,0,0,0-1,1v2h2V52h7v1h2V51A1,1,0,0,0,57,50Z"/><rect x="47" y="34" width="11" height="2"/></g></svg>