<svg xmlns="http://www.w3.org/2000/svg" viewBox="0 0 64 64"><title>seo-search-engine-optimization</title><g id="outline"><path d="M7,62H50a5.006,5.006,0,0,0,5-5V37H53V57a3,3,0,0,1-3,3H7a3,3,0,0,1-3-3V13a3,3,0,0,1,3-3H37V8H7a5.006,5.006,0,0,0-5,5V57A5.006,5.006,0,0,0,7,62Z"/><rect x="6" y="12" width="2" height="2"/><rect x="10" y="12" width="2" height="2"/><rect x="14" y="12" width="2" height="2"/><rect x="6" y="16" width="28" height="2"/><path d="M59.188,10.779l-.715-4.425a1,1,0,0,0-.827-.827l-4.425-.715L49.585,2.189a1,1,0,0,0-1.17,0L44.779,4.812l-4.425.715a1,1,0,0,0-.827.827l-.715,4.425-2.623,3.636a1,1,0,0,0,0,1.17l2.623,3.636.715,4.425a.994.994,0,0,0,.648.767l-3.07,6.14A1,1,0,0,0,38,32h3.465l1.7,2.555A1,1,0,0,0,44,35l.062,0a1,1,0,0,0,.833-.551L48.266,27.7l.149.108a1,1,0,0,0,1.17,0l.149-.108,3.371,6.744a1,1,0,0,0,.832.551L54,35a1,1,0,0,0,.832-.445L56.535,32H60a1,1,0,0,0,.9-1.447l-3.07-6.14a.994.994,0,0,0,.648-.767l.715-4.425,2.623-3.636a1,1,0,0,0,0-1.17ZM43.876,32.012l-1.044-1.567A1,1,0,0,0,42,30H39.618l2.611-5.224,2.55.412,1.328.958.516.373ZM58.382,30H56a1,1,0,0,0-.832.445l-1.044,1.567-2.747-5.493.516-.373,1.328-.958,2.55-.412Zm-.953-11.758a.992.992,0,0,0-.177.425l-.639,3.946-.434.071h0l-3.509.567a.99.99,0,0,0-.426.177l-1.253.9L49,25.767l-1.989-1.435-1.253-.9a.99.99,0,0,0-.426-.177l-3.509-.567h0l-.434-.071-.639-3.946a.992.992,0,0,0-.177-.425L38.233,15l2.338-3.242a.992.992,0,0,0,.177-.425l.639-3.946,3.946-.639a.992.992,0,0,0,.425-.177L49,4.233l3.242,2.338a.992.992,0,0,0,.425.177l3.946.639.639,3.946a.992.992,0,0,0,.177.425L59.767,15Z"/><path d="M49,8a7,7,0,1,0,7,7A7.009,7.009,0,0,0,49,8Zm0,12a5,5,0,1,1,5-5A5.006,5.006,0,0,1,49,20Z"/><path d="M49.525,12.149a1,1,0,0,0-.972-.044l-2,1,.894,1.79L48,14.618V18h2V13A1,1,0,0,0,49.525,12.149Z"/><path d="M16,22a1,1,0,0,0-1-1H7a1,1,0,0,0-1,1v8a1,1,0,0,0,1,1h8a1,1,0,0,0,1-1Zm-2,7H8V23h6Z"/><rect x="18" y="21" width="7" height="2"/><rect x="18" y="25" width="17" height="2"/><rect x="18" y="29" width="9" height="2"/><rect x="29" y="29" width="6" height="2"/><path d="M16,35a1,1,0,0,0-1-1H7a1,1,0,0,0-1,1v8a1,1,0,0,0,1,1h8a1,1,0,0,0,1-1Zm-2,7H8V36h6Z"/><rect x="18" y="34" width="7" height="2"/><rect x="18" y="38" width="23" height="2"/><rect x="18" y="42" width="9" height="2"/><rect x="29" y="42" width="12" height="2"/><path d="M15,47H7a1,1,0,0,0-1,1v8a1,1,0,0,0,1,1h8a1,1,0,0,0,1-1V48A1,1,0,0,0,15,47Zm-1,8H8V49h6Z"/><rect x="18" y="47" width="7" height="2"/><rect x="18" y="51" width="23" height="2"/><rect x="18" y="55" width="9" height="2"/><rect x="29" y="55" width="12" height="2"/></g></svg>