<svg xmlns="http://www.w3.org/2000/svg" viewBox="0 0 64 64"><title>theme-options-tools-feature</title><g id="outline"><path d="M61.707,32.293l-7-7a1,1,0,0,0-1.414,0L34,44.586,25.414,36H27.5a8.01,8.01,0,0,0,6.24,3A7.89,7.89,0,0,0,40.9,34.43,1,1,0,0,0,40,33H35V29h5a1,1,0,0,0,.9-1.43A7.89,7.89,0,0,0,33.74,23a8.007,8.007,0,0,0-6.24,3H23.414L35.707,13.707a1,1,0,0,0,.251-.42l3-10a1,1,0,0,0-1.245-1.245l-10,3a1,1,0,0,0-.42.251L6.412,26.174A8.767,8.767,0,0,0,4.571,39.985L24.015,59.429A8.712,8.712,0,0,0,30,61.989V62h5a1,1,0,0,0,.832-.445,1.444,1.444,0,0,1,2.336,0A1,1,0,0,0,39,62h3a1,1,0,0,0,1-1V59h9.877l3.88.97a1,1,0,0,0,.486,0l4-1A1,1,0,0,0,62,58V54a1,1,0,0,0-.757-.97l-4-1a.976.976,0,0,0-.486,0l-3.88.97H42.414L61.707,33.707A1,1,0,0,0,61.707,32.293ZM43,55H53a1,1,0,0,0,.243-.03L57,54.031l3,.75v2.438l-3,.75-3.757-.939A1,1,0,0,0,53,57H43ZM28,28a1,1,0,0,0,.82-.428A6.009,6.009,0,0,1,33.74,25a5.853,5.853,0,0,1,4.418,2H35a2,2,0,0,0-2,2v4a2,2,0,0,0,2,2h3.158a5.853,5.853,0,0,1-4.418,2,6.01,6.01,0,0,1-4.92-2.572A1,1,0,0,0,28,34H23.414l-2-2H28V30H19.414l-2-2Zm-7.414-2H16.414L31.5,10.914,33.586,13ZM36.508,4.491l-.6,2-1.4-1.4ZM32.331,5.745l2.924,2.924-.732,2.44L29.891,6.477ZM28,7.414,30.086,9.5,13.979,25.607a8.748,8.748,0,0,0-3.2-.607c-.129,0-.255.014-.383.019ZM30.222,60a6.734,6.734,0,0,1-4.793-1.985L5.985,38.571a6.778,6.778,0,0,1,9.586-9.586L35.015,48.429A6.778,6.778,0,0,1,30.222,60ZM41,58v2H39.479A3.4,3.4,0,0,0,37,58.93c-.046,0-.09.012-.135.014a8.84,8.84,0,0,0,.961-1.356L41,54.414Zm-2.019-4.4c0-.128.019-.254.019-.383a8.72,8.72,0,0,0-2.571-6.207L35.414,46,39,42.414l2.293,2.293,1.414-1.414L40.414,41,42,39.414l1.293,1.293,1.414-1.414L43.414,38,45,36.414l2.293,2.293,1.414-1.414L46.414,35,48,33.414l1.293,1.293,1.414-1.414L49.414,32,51,30.414l2.293,2.293,1.414-1.414L52.414,29,54,27.414,59.586,33Z"/><path d="M8.327,32.473l-1.763-.946A4.783,4.783,0,0,0,6,33.778H8A2.728,2.728,0,0,1,8.327,32.473Z"/><path d="M8.528,35.409,6.914,36.591a4.881,4.881,0,0,0,.486.566l4.893,4.894,1.414-1.414L8.815,35.744A2.838,2.838,0,0,1,8.528,35.409Z"/></g></svg>