<svg xmlns="http://www.w3.org/2000/svg" viewBox="0 0 64 64"><title>update-synchronize-software-data</title><g id="outline"><path d="M6,59H54a4,4,0,0,0,4-4V52a1,1,0,0,0-1-1H55V36H53V51H51V37H49V51H36.118a2.794,2.794,0,0,0-2.512,1.553.805.805,0,0,1-.724.447H27.118a.805.805,0,0,1-.724-.447A2.794,2.794,0,0,0,23.882,51H11V22H30V20H10a1,1,0,0,0-1,1V51H7V21a3,3,0,0,1,3-3H30V16H10a5.006,5.006,0,0,0-5,5V51H3a1,1,0,0,0-1,1v3A4,4,0,0,0,6,59ZM4,53H23.882a.805.805,0,0,1,.724.447A2.794,2.794,0,0,0,27.118,55h5.764a2.794,2.794,0,0,0,2.512-1.553A.805.805,0,0,1,36.118,53H56v2a2,2,0,0,1-2,2H6a2,2,0,0,1-2-2Z"/><rect x="13" y="24" width="2" height="2"/><rect x="17" y="24" width="2" height="2"/><rect x="21" y="24" width="2" height="2"/><path d="M32,30V28H14a1,1,0,0,0-1,1v6a1,1,0,0,0,1,1H38V34H15V30Z"/><rect x="13" y="47" width="7" height="2"/><rect x="22" y="47" width="7" height="2"/><rect x="31" y="47" width="7" height="2"/><rect x="40" y="47" width="7" height="2"/><path d="M29,39a1,1,0,0,0-1-1H23a1,1,0,0,0-1,1v5a1,1,0,0,0,1,1h5a1,1,0,0,0,1-1Zm-2,4H24V40h3Z"/><path d="M20,39a1,1,0,0,0-1-1H14a1,1,0,0,0-1,1v5a1,1,0,0,0,1,1h5a1,1,0,0,0,1-1Zm-2,4H15V40h3Z"/><path d="M46,45a1,1,0,0,0,1-1V39a1,1,0,0,0-1-1H41a1,1,0,0,0-1,1v5a1,1,0,0,0,1,1Zm-4-5h3v3H42Z"/><path d="M38,39a1,1,0,0,0-1-1H32a1,1,0,0,0-1,1v5a1,1,0,0,0,1,1h5a1,1,0,0,0,1-1Zm-2,4H33V40h3Z"/><path d="M47,5A15,15,0,1,0,62,20,15.017,15.017,0,0,0,47,5Zm0,28A13,13,0,1,1,60,20,13.015,13.015,0,0,1,47,33Z"/><path d="M47,13a7.033,7.033,0,0,1,1.32.14l-1.478.93,1.066,1.693,3.375-2.125a1,1,0,0,0,.275-1.435L49.1,8.828l-1.617,1.177.8,1.092A8.963,8.963,0,0,0,38,20a8.941,8.941,0,0,0,1.63,5.167l1.637-1.149A7,7,0,0,1,47,13Z"/><path d="M52.691,15.866a7,7,0,0,1-5.733,11.018,7.023,7.023,0,0,1-1.319-.14l1.477-.931-1.065-1.692-3.375,2.125a1,1,0,0,0-.276,1.435l2.458,3.375,1.617-1.178-.8-1.092a9,9,0,0,0,8.649-14.069Z"/></g></svg>