<svg xmlns="http://www.w3.org/2000/svg" viewBox="0 0 64 64"><title>web-hosting-server-admin</title><g id="outline"><path d="M61,2H23a1,1,0,0,0-1,1v8a1,1,0,0,0,1,1h3v2H23a1,1,0,0,0-1,1v1H60v6H52v6h8v6H52v6h8v6H52v5a1,1,0,0,0,1,1h4a1,1,0,0,0,1-1V48h3a1,1,0,0,0,1-1V39a1,1,0,0,0-1-1H58V36h3a1,1,0,0,0,1-1V27a1,1,0,0,0-1-1H58V24h3a1,1,0,0,0,1-1V15a1,1,0,0,0-1-1H58V12h3a1,1,0,0,0,1-1V3A1,1,0,0,0,61,2ZM56,26H54V24h2Zm0,12H54V36h2Zm0,12H54V48h2ZM30,14H28V12h2Zm22,0H32V12H52Zm4,0H54V12h2Zm4-4H24V4H60Z"/><rect x="56" y="6" width="2" height="2"/><rect x="52" y="6" width="2" height="2"/><rect x="48" y="6" width="2" height="2"/><rect x="26" y="6" width="2" height="2"/><rect x="56" y="18" width="2" height="2"/><rect x="52" y="18" width="2" height="2"/><rect x="56" y="30" width="2" height="2"/><rect x="52" y="30" width="2" height="2"/><rect x="56" y="42" width="2" height="2"/><rect x="52" y="42" width="2" height="2"/><path d="M6,62H46a4,4,0,0,0,4-4V22a4,4,0,0,0-4-4H6a4,4,0,0,0-4,4V58A4,4,0,0,0,6,62ZM4,22a2,2,0,0,1,2-2H46a2,2,0,0,1,2,2V58a2,2,0,0,1-2,2H6a2,2,0,0,1-2-2Z"/><rect x="6" y="22" width="2" height="2"/><rect x="10" y="22" width="2" height="2"/><rect x="14" y="22" width="2" height="2"/><rect x="6" y="26" width="40" height="2"/><path d="M7,44H45a1,1,0,0,0,1-1V31a1,1,0,0,0-1-1H7a1,1,0,0,0-1,1V43A1,1,0,0,0,7,44ZM8,32H44V42H8Z"/><rect x="25" y="38" width="2" height="2"/><rect x="21" y="38" width="2" height="2"/><rect x="17" y="38" width="2" height="2"/><rect x="29" y="38" width="2" height="2"/><rect x="33" y="38" width="2" height="2"/><path d="M7,54H17a1,1,0,0,0,1-1V47a1,1,0,0,0-1-1H7a1,1,0,0,0-1,1v6A1,1,0,0,0,7,54Zm1-6h8v4H8Z"/><path d="M31,46H21a1,1,0,0,0-1,1v6a1,1,0,0,0,1,1H31a1,1,0,0,0,1-1V47A1,1,0,0,0,31,46Zm-1,6H22V48h8Z"/><path d="M45,46H35a1,1,0,0,0-1,1v6a1,1,0,0,0,1,1H45a1,1,0,0,0,1-1V47A1,1,0,0,0,45,46Zm-1,6H36V48h8Z"/><rect x="6" y="56" width="12" height="2"/><rect x="20" y="56" width="12" height="2"/><rect x="34" y="56" width="12" height="2"/></g></svg>