<svg xmlns="http://www.w3.org/2000/svg" viewBox="0 0 64 64"><title>website-layout-design-develop</title><g id="outline"><path d="M58,10v2a2,2,0,0,1,2,2V44H4V14a2,2,0,0,1,2-2V10a4,4,0,0,0-4,4V48a4,4,0,0,0,4,4H25.656l-2.4,8H21v2H43V60H40.744l-2.4-8H58a4,4,0,0,0,4-4V14A4,4,0,0,0,58,10ZM38.656,60H25.344l2.4-8h8.512ZM60,48a2,2,0,0,1-2,2H6a2,2,0,0,1-2-2V46H60Z"/><path d="M56,42V6a4,4,0,0,0-4-4H12A4,4,0,0,0,8,6V42h2V6a2,2,0,0,1,2-2H52a2,2,0,0,1,2,2V42Z"/><rect x="12" y="6" width="2" height="2"/><rect x="16" y="6" width="2" height="2"/><rect x="20" y="6" width="2" height="2"/><rect x="12" y="10" width="40" height="2"/><path d="M31,15a1,1,0,0,0-1-1H13a1,1,0,0,0-1,1V29a1,1,0,0,0,1,1H30a1,1,0,0,0,1-1ZM18,28H14V21h4Zm11,0H20V21h9Zm0-9H14V16H29Z"/><path d="M52,15a1,1,0,0,0-1-1H34a1,1,0,0,0-1,1V29a1,1,0,0,0,1,1H51a1,1,0,0,0,1-1ZM44,28H35V21h9Zm6,0H46V21h4Zm0-9H35V16H50Z"/><path d="M31,42V33a1,1,0,0,0-1-1H13a1,1,0,0,0-1,1v9h2V39H29v3ZM14,37V34H29v3Z"/><path d="M52,42V33a1,1,0,0,0-1-1H34a1,1,0,0,0-1,1v9h2V34h4v8h2V34h9v8Z"/></g></svg>