<svg xmlns="http://www.w3.org/2000/svg" xmlns:xlink="http://www.w3.org/1999/xlink" width="48" zoomAndPan="magnify" viewBox="0 0 36 36.000001" height="48" preserveAspectRatio="xMidYMid meet" version="1.0"><defs><g/><clipPath id="45398cb1a6"><path d="M 0.488281 0 L 35.511719 0 L 35.511719 35.027344 L 0.488281 35.027344 Z M 0.488281 0 " clip-rule="nonzero"/></clipPath><clipPath id="edf497e00d"><rect x="0" width="24" y="0" height="35"/></clipPath></defs><g clip-path="url(#45398cb1a6)"><path fill="#ffffff" d="M 0.488281 0 L 35.511719 0 L 35.511719 35.027344 L 0.488281 35.027344 Z M 0.488281 0 " fill-opacity="1" fill-rule="nonzero"/><path fill="#f44336" d="M 0.488281 0 L 35.511719 0 L 35.511719 35.027344 L 0.488281 35.027344 Z M 0.488281 0 " fill-opacity="1" fill-rule="nonzero"/></g><g transform="matrix(1, 0, 0, 1, 6, 0.000000000000010582)"><g clip-path="url(#edf497e00d)"><g fill="#ffffff" fill-opacity="1"><g transform="translate(0.920444, 26.677243)"><g><path d="M 11.3125 0.28125 C 9.882812 0.28125 8.546875 0.0195312 7.296875 -0.5 C 6.054688 -1.019531 4.96875 -1.753906 4.03125 -2.703125 C 3.09375 -3.648438 2.359375 -4.742188 1.828125 -5.984375 C 1.304688 -7.234375 1.046875 -8.582031 1.046875 -10.03125 C 1.046875 -11.488281 1.3125 -12.835938 1.84375 -14.078125 C 2.382812 -15.328125 3.128906 -16.421875 4.078125 -17.359375 C 5.023438 -18.296875 6.132812 -19.023438 7.40625 -19.546875 C 8.675781 -20.078125 10.050781 -20.34375 11.53125 -20.34375 C 13.1875 -20.34375 14.707031 -20.03125 16.09375 -19.40625 C 17.476562 -18.789062 18.628906 -17.925781 19.546875 -16.8125 L 16.921875 -14.1875 C 16.296875 -15 15.515625 -15.625 14.578125 -16.0625 C 13.648438 -16.5 12.625 -16.71875 11.5 -16.71875 C 10.226562 -16.71875 9.101562 -16.4375 8.125 -15.875 C 7.15625 -15.320312 6.394531 -14.546875 5.84375 -13.546875 C 5.289062 -12.546875 5.015625 -11.382812 5.015625 -10.0625 C 5.015625 -8.726562 5.285156 -7.550781 5.828125 -6.53125 C 6.367188 -5.519531 7.109375 -4.726562 8.046875 -4.15625 C 8.984375 -3.582031 10.0625 -3.296875 11.28125 -3.296875 C 12.53125 -3.296875 13.601562 -3.53125 14.5 -4 C 15.394531 -4.46875 16.078125 -5.148438 16.546875 -6.046875 C 17.023438 -6.953125 17.265625 -8.0625 17.265625 -9.375 L 19.796875 -7.640625 L 11.046875 -7.71875 L 11.046875 -11.078125 L 21.25 -11.078125 L 21.25 -10.546875 C 21.25 -8.148438 20.820312 -6.148438 19.96875 -4.546875 C 19.113281 -2.941406 17.941406 -1.734375 16.453125 -0.921875 C 14.960938 -0.117188 13.25 0.28125 11.3125 0.28125 Z M 11.3125 0.28125 "/></g></g></g></g></g></svg>